<svg width="52" height="48" viewBox="0 0 52 48" fill="none" xmlns="http://www.w3.org/2000/svg">
<g clip-path="url(#clip0_3527_60)">
<path fill-rule="evenodd" clip-rule="evenodd" d="M20.594 31.0855C20.709 31.0855 20.709 31.0855 20.8241 31.0855C20.9391 31.0855 21.0541 31.0855 21.1692 30.9703L27.3816 26.8219C27.7267 26.9372 28.0718 27.0524 28.417 27.0524C30.1426 27.0524 31.5232 25.6696 31.5232 23.9411C31.5232 22.904 31.063 21.9822 30.2577 21.406V7.23241C30.2577 7.11717 30.1426 6.88671 29.9125 6.65624C29.5674 6.31055 28.8772 6.19531 28.3019 6.19531C27.7267 6.19531 27.0364 6.42578 26.6913 6.77148C26.4612 7.00194 26.4612 7.11717 26.4612 7.34764V21.5212C25.771 22.0974 25.3108 22.904 25.1957 23.8259L19.0984 27.859C18.9833 27.9743 18.8683 28.0895 18.7533 28.4352C18.6382 28.8961 18.8683 29.5875 19.0984 30.0484C19.3285 30.5094 19.9037 30.9703 20.3639 31.0855H20.594Z" fill="#FFFEFE"/>
<path fill-rule="evenodd" clip-rule="evenodd" d="M28.6447 0.550781C28.5296 0.550781 28.2995 0.666014 28.1845 0.781246C27.8393 1.12694 27.6093 1.81834 27.6093 2.3945C27.6093 2.97066 27.8393 3.66206 28.1845 4.00776C28.4146 4.23822 28.5296 4.23822 28.7597 4.23822C39.5739 4.23822 48.4323 13.1111 48.4323 23.943C48.4323 34.7748 39.5739 43.6478 28.7597 43.6478C17.9455 43.6478 9.08713 34.7748 9.08713 23.943C9.08713 21.6383 9.43227 19.4489 10.2376 17.2595L12.6535 22.2145C12.7685 22.3297 12.8836 22.5602 13.2287 22.5602C13.3438 22.5602 13.4588 22.5602 13.5739 22.5602C13.919 22.5602 14.3792 22.445 14.8393 22.3297C15.2995 22.0993 15.8747 21.6383 15.9898 21.1774C16.1048 20.9469 16.1048 20.7165 15.9898 20.6012L10.9278 10.2303L0.573859 15.3005C0.458815 15.4158 0.228726 15.531 0.228726 15.7615C0.113682 16.2224 0.228726 17.029 0.458815 17.49C0.688903 17.9509 1.14908 18.5271 1.60926 18.6423C1.83935 18.7575 2.06943 18.6423 2.18448 18.6423L6.55616 16.4529C5.75085 18.8728 5.29067 21.4079 5.29067 23.943C5.29067 36.849 15.7597 47.3352 28.6447 47.3352C41.5296 47.3352 51.9986 36.849 51.9986 23.943C51.9986 11.0369 41.5296 0.550781 28.6447 0.550781Z" fill="#FFFEFE"/>
</g>
<defs>
<clipPath id="clip0_3527_60">
<rect width="52" height="48" fill="white"/>
</clipPath>
</defs>
</svg>
