<svg width="52" height="47" viewBox="0 0 52 47" fill="none" xmlns="http://www.w3.org/2000/svg">
<g clip-path="url(#clip0_3527_72)">
<path fill-rule="evenodd" clip-rule="evenodd" d="M15.5237 0C10.183 0 6.28009 2.46497 3.81512 5.8543C1.35015 9.24364 0.425781 13.5573 0.425781 17.4602C0.425781 23.828 3.19887 29.5796 7.71799 34.5096C12.0317 39.1314 17.886 42.9316 24.4592 46.0128C24.4592 46.0128 25.2809 46.4236 25.589 46.5263C25.6917 46.5263 25.7944 46.629 25.9998 46.629C26.1026 46.629 26.2053 46.629 26.308 46.5263C26.6161 46.4236 27.4377 46.0128 27.4377 46.0128C34.011 43.0343 39.8653 39.1314 44.179 34.5096C48.6981 29.6824 51.4712 23.9308 51.4712 17.4602C51.4712 13.5573 50.4441 9.24364 48.0819 5.8543C45.6169 2.46497 41.714 0 36.3733 0C32.5731 0 28.6702 1.54061 25.8971 4.72453C23.1241 1.64331 19.3239 0 15.421 0H15.5237ZM15.5237 2.36226C19.1185 2.36226 22.8159 3.90287 25.0755 7.08679C25.4863 7.70303 26.5134 7.70303 26.9242 7.08679C29.1838 3.90287 32.8812 2.36226 36.476 2.36226C41.0978 2.36226 44.179 4.3137 46.2331 7.1895C48.2873 10.0653 49.2117 13.9682 49.2117 17.4602C49.2117 19.2062 49.0062 21.055 48.4927 22.6983H36.0651L32.8812 15.2007C32.6758 14.7898 32.265 14.4817 31.7514 14.4817C31.2379 14.4817 30.8271 14.7898 30.7244 15.3034L26.1026 28.6553L21.8916 13.66C21.7889 13.1465 21.1726 12.7357 20.6591 12.8384C20.2483 12.8384 19.8374 13.1465 19.7347 13.5573L16.5508 22.6983H3.50699C2.99346 21.055 2.78804 19.3089 2.78804 17.4602C2.78804 13.9682 3.71241 10.0653 5.76655 7.1895C7.82069 4.3137 10.9019 2.36226 15.5237 2.36226ZM20.6591 17.871L24.8701 32.969C24.9728 33.4825 25.4863 33.7906 25.9998 33.7906C26.5134 33.7906 27.0269 33.4825 27.1296 32.969L31.9569 19.0008L34.2164 24.3416C34.4218 24.7524 34.8327 25.0605 35.2435 25.0605H47.671C46.5413 27.8336 44.7952 30.504 42.433 32.969C38.3247 37.3854 32.4704 41.1855 25.8971 44.1641C19.3239 41.1855 13.4696 37.3854 9.3613 32.969C7.10174 30.504 5.35572 27.9363 4.12324 25.0605H17.167C17.6806 25.0605 18.0914 24.7524 18.2968 24.2389L20.5564 17.871H20.6591Z" fill="white"/>
</g>
<defs>
<clipPath id="clip0_3527_72">
<rect width="52" height="46.5263" fill="white"/>
</clipPath>
</defs>
</svg>
