<svg width="103" height="121" viewBox="0 0 103 121" fill="none" xmlns="http://www.w3.org/2000/svg">
<path d="M74.2902 65.4977V81.638C83.8125 84.1773 90.5575 101.333 90.5575 110.602V112.982H79.7179C79.0865 112.982 78.481 112.732 78.0346 112.285C77.5881 111.839 77.3373 111.233 77.3373 110.602C77.3373 109.97 77.5881 109.365 78.0346 108.918C78.481 108.472 79.0865 108.221 79.7179 108.221H85.6376C84.5584 99.3813 78.0673 86.0025 71.9096 86.0025C65.7518 86.0025 59.2131 99.302 58.1815 108.221H64.1965C64.8278 108.221 65.4333 108.472 65.8798 108.918C66.3262 109.365 66.5771 109.97 66.5771 110.602C66.5771 111.233 66.3262 111.839 65.8798 112.285C65.4333 112.732 64.8278 112.982 64.1965 112.982H53.2616V110.602C53.2616 101.333 59.9908 84.1773 69.529 81.638V63.736C64.9757 62.3232 60.2351 61.6062 55.4677 61.6094H47.5324C40.8191 61.6076 34.1819 63.0302 28.0592 65.7833V91.5889C30.0862 92.1635 31.8369 93.4518 32.9884 95.2162C34.1399 96.9805 34.6143 99.1018 34.3243 101.189C34.0342 103.275 32.9992 105.187 31.4102 106.57C29.8212 107.954 27.7854 108.716 25.6786 108.716C23.5718 108.716 21.536 107.954 19.947 106.57C18.358 105.187 17.323 103.275 17.0329 101.189C16.7428 99.1018 17.2173 96.9805 18.3688 95.2162C19.5203 93.4518 21.271 92.1635 23.298 91.5889V68.2433C16.1973 72.4462 10.3143 78.4268 6.22888 85.5958C2.14347 92.7647 -0.0033553 100.875 1.09765e-05 109.126C-0.00207502 110.634 0.29318 112.128 0.868889 113.522C1.4446 114.916 2.28947 116.183 3.35517 117.25C4.42088 118.317 5.68652 119.164 7.07969 119.741C8.47287 120.319 9.96625 120.616 11.4744 120.616H91.5256C94.5688 120.616 97.4874 119.407 99.6392 117.255C101.791 115.104 103 112.185 103 109.142C103.002 99.8577 100.283 90.7766 95.181 83.0203C90.0788 75.2639 82.8161 69.1722 74.2902 65.4977Z" fill="white"/>
<path d="M51.4999 51.4841C65.7168 51.4841 77.2419 39.959 77.2419 25.7421C77.2419 11.5251 65.7168 0 51.4999 0C37.2829 0 25.7578 11.5251 25.7578 25.7421C25.7578 39.959 37.2829 51.4841 51.4999 51.4841Z" fill="white"/>
<path d="M25.6727 103.951C27.864 103.951 29.6404 102.175 29.6404 99.9833C29.6404 97.792 27.864 96.0156 25.6727 96.0156C23.4815 96.0156 21.7051 97.792 21.7051 99.9833C21.7051 102.175 23.4815 103.951 25.6727 103.951Z" fill="white"/>
</svg>
