<svg width="52" height="39" viewBox="0 0 52 39" fill="none" xmlns="http://www.w3.org/2000/svg">
<g clip-path="url(#clip0_3527_78)">
<path fill-rule="evenodd" clip-rule="evenodd" d="M42.2757 29.0645C41.6415 29.0645 41.2188 29.5929 41.2188 30.1214C41.2188 30.7555 41.7472 31.1783 42.2757 31.1783C42.9098 31.1783 43.3326 30.6498 43.3326 30.1214C43.3326 29.4872 42.8041 29.0645 42.2757 29.0645Z" fill="white"/>
<path fill-rule="evenodd" clip-rule="evenodd" d="M10.885 29.0645C10.2509 29.0645 9.82812 29.5929 9.82812 30.1214C9.82812 30.7555 10.3566 31.1783 10.885 31.1783C11.5192 31.1783 11.9419 30.6498 11.9419 30.1214C11.9419 29.4872 11.4135 29.0645 10.885 29.0645Z" fill="white"/>
<path fill-rule="evenodd" clip-rule="evenodd" d="M21.6652 9.51172H15.1124V12.7881H11.8359V19.341H15.1124V22.6174H21.6652V19.341H24.9416V12.7881H21.6652V9.51172ZM22.7221 14.902V17.1215H21.6652H19.4457V19.2353V20.2922H17.3319V19.2353V17.0158H15.1124H14.0554V14.7963H15.1124H17.3319V12.6825V11.6255H19.4457V12.6825V14.7963H21.6652H22.7221V14.902Z" fill="white"/>
<path fill-rule="evenodd" clip-rule="evenodd" d="M52 20.2925L43.3333 9.40636H40.0569V7.18685C40.0569 6.5527 39.5285 6.12994 39 6.12994C38.3659 6.12994 37.9431 6.65839 37.9431 7.18685V9.40636H34.6667V5.07303C34.6667 3.91043 33.7154 2.85352 32.4472 2.85352H2.11382C0.95122 2.85352 0 3.80474 0 5.07303V28.9592C0 30.1218 0.95122 31.1787 2.11382 31.1787H4.96748C5.49593 33.9267 7.82114 36.0405 10.7805 36.0405C13.6341 36.0405 16.065 33.9267 16.5935 31.1787H36.3577C36.8862 33.9267 39.3171 36.1462 42.2764 36.1462C45.2358 36.1462 47.6667 34.0324 48.1951 31.1787H52.1057V20.2925H52ZM10.7805 33.821C8.77236 33.821 7.0813 32.1299 7.0813 30.1218C7.0813 28.1137 8.77236 26.4226 10.7805 26.4226C12.7886 26.4226 14.4797 28.1137 14.4797 30.1218C14.4797 32.1299 12.7886 33.821 10.7805 33.821ZM16.4878 28.9592C15.9594 26.3169 13.6341 24.2031 10.7805 24.2031C7.92683 24.2031 5.60163 26.2112 5.07317 28.9592H2.11382V5.07303H32.4472V28.9592H16.4878ZM42.1707 33.9267C40.0569 33.9267 38.3659 32.2356 38.3659 30.1218C38.3659 28.008 40.0569 26.3169 42.1707 26.3169C44.2846 26.3169 45.9756 28.008 45.9756 30.1218C45.9756 32.2356 44.2846 33.9267 42.1707 33.9267ZM49.7805 28.9592H48.0894C47.561 26.2112 45.1301 24.0974 42.2764 24.0974C39.4228 24.0974 36.9919 26.2112 36.4634 28.9592H34.7724V11.6259H42.3821L49.8862 21.0324V28.9592H49.7805Z" fill="white"/>
</g>
<defs>
<clipPath id="clip0_3527_78">
<rect width="52" height="39" fill="white"/>
</clipPath>
</defs>
</svg>
