<svg width="36" height="36" viewBox="0 0 36 36" fill="none" xmlns="http://www.w3.org/2000/svg">
<rect width="36" height="36" rx="6.42857" fill="#099A4E"/>
<circle cx="18" cy="18" r="18" fill="white"/>
<path d="M18.0004 21.6004C19.9886 21.6004 21.6004 19.9886 21.6004 18.0004C21.6004 16.0122 19.9886 14.4004 18.0004 14.4004C16.0122 14.4004 14.4004 16.0122 14.4004 18.0004C14.4004 19.9886 16.0122 21.6004 18.0004 21.6004Z" fill="#099A4E"/>
<path d="M18 0C8.05889 0 0 8.05889 0 18C0 27.9411 8.05889 36 18 36C27.9411 36 36 27.9411 36 18C36 8.05889 27.9411 0 18 0ZM29.121 22.5749C29.0346 24.2862 28.5537 25.9737 27.3066 27.2076C26.0474 28.4532 24.3518 28.9173 22.6241 29.0028H13.376C11.648 28.9173 9.9527 28.4535 8.6935 27.2076C7.44631 25.9737 6.9655 24.2862 6.8791 22.5749V13.4251C6.9655 11.7138 7.44638 10.0263 8.6935 8.79235C9.9527 7.54675 11.6482 7.08264 13.376 6.99718H22.624C24.352 7.08264 26.0473 7.54654 27.3065 8.79235C28.5537 10.0263 29.0345 11.7138 29.1209 13.4251L29.121 22.5749Z" fill="#099A4E"/>
<path d="M22.6572 9.40403C20.3365 9.34449 15.6915 9.34449 13.3709 9.40403C12.1632 9.43505 10.7941 9.71631 9.93366 10.5761C9.03954 11.4698 8.70166 12.5496 8.66739 13.7576C8.60716 15.8777 8.66739 22.2412 8.66739 22.2412C8.70663 23.449 9.03954 24.5289 9.93366 25.4226C10.7941 26.2827 12.1632 26.5637 13.3709 26.5947C15.6915 26.6543 20.3365 26.6543 22.6572 26.5947C23.8648 26.5637 25.2339 26.2824 26.0944 25.4226C26.9885 24.5289 27.3264 23.4491 27.3606 22.2412V13.7576C27.3264 12.5496 26.9885 11.4698 26.0944 10.5761C25.2336 9.71603 23.8645 9.43505 22.6572 9.40403ZM18.0137 23.6464C16.8199 23.6464 15.6529 23.3152 14.6602 22.6947C13.6676 22.0742 12.8939 21.1922 12.4371 20.1604C11.9802 19.1285 11.8607 17.9931 12.0936 16.8977C12.3265 15.8023 12.9014 14.7961 13.7455 14.0064C14.5897 13.2166 15.6652 12.6788 16.8361 12.4609C18.007 12.243 19.2207 12.3548 20.3236 12.7822C21.4266 13.2097 22.3693 13.9334 23.0326 14.8621C23.6958 15.7907 24.0498 16.8825 24.0498 17.9994C24.0498 19.497 23.4139 20.9334 22.2819 21.9924C21.1499 23.0514 19.6146 23.6464 18.0137 23.6464ZM24.0755 13.518C23.8367 13.518 23.6034 13.4517 23.4049 13.3275C23.2064 13.2034 23.0517 13.027 22.9604 12.8206C22.8691 12.6143 22.8452 12.3872 22.8918 12.1681C22.9384 11.9491 23.0534 11.7478 23.2223 11.5899C23.3911 11.432 23.6062 11.3245 23.8404 11.2809C24.0746 11.2373 24.3173 11.2597 24.5378 11.3452C24.7584 11.4307 24.9469 11.5755 25.0796 11.7612C25.2122 11.9469 25.283 12.1653 25.283 12.3886C25.283 12.537 25.2518 12.6838 25.1911 12.8209C25.1304 12.9579 25.0415 13.0824 24.9293 13.1873C24.8172 13.2922 24.6841 13.3754 24.5376 13.4321C24.3911 13.4889 24.2341 13.5181 24.0755 13.518Z" fill="#099A4E"/>
</svg>
