<svg width="32" height="32" viewBox="0 0 32 32" fill="none" xmlns="http://www.w3.org/2000/svg">
<path d="M16 11C14.6739 11 13.4021 11.5268 12.4645 12.4645C11.5268 13.4021 11 14.6739 11 16C11 17.3261 11.5268 18.5979 12.4645 19.5355C13.4021 20.4732 14.6739 21 16 21C17.3261 21 18.5979 20.4732 19.5355 19.5355C20.4732 18.5979 21 17.3261 21 16C21 14.6739 20.4732 13.4021 19.5355 12.4645C18.5979 11.5268 17.3261 11 16 11Z" fill="white"/>
<path fill-rule="evenodd" clip-rule="evenodd" d="M8.03441 2.43913C13.3286 1.85362 18.6714 1.85362 23.9657 2.43913C26.858 2.76148 29.1898 5.03467 29.5294 7.9328C30.1569 13.2922 30.1569 18.7062 29.5294 24.0656C29.1898 26.9637 26.858 29.2369 23.9672 29.5608C18.6725 30.1464 13.3291 30.1464 8.03441 29.5608C5.14211 29.2369 2.81029 26.9637 2.47065 24.0671C1.84312 18.7073 1.84312 13.2927 2.47065 7.9328C2.81029 5.03467 5.14211 2.76148 8.03441 2.43913ZM23.6154 6.87603C23.2114 6.87603 22.824 7.03623 22.5384 7.32138C22.2528 7.60654 22.0923 7.99329 22.0923 8.39656C22.0923 8.79983 22.2528 9.18658 22.5384 9.47173C22.824 9.75689 23.2114 9.91709 23.6154 9.91709C24.0193 9.91709 24.4067 9.75689 24.6923 9.47173C24.978 9.18658 25.1384 8.79983 25.1384 8.39656C25.1384 7.99329 24.978 7.60654 24.6923 7.32138C24.4067 7.03623 24.0193 6.87603 23.6154 6.87603ZM8.76548 15.9992C8.76548 14.0837 9.52769 12.2466 10.8844 10.8921C12.2412 9.53763 14.0813 8.77669 16 8.77669C17.9188 8.77669 19.7589 9.53763 21.1157 10.8921C22.4724 12.2466 23.2346 14.0837 23.2346 15.9992C23.2346 17.9147 22.4724 19.7518 21.1157 21.1063C19.7589 22.4608 17.9188 23.2217 16 23.2217C14.0813 23.2217 12.2412 22.4608 10.8844 21.1063C9.52769 19.7518 8.76548 17.9147 8.76548 15.9992Z" fill="white"/>
</svg>
