<svg width="44" height="44" viewBox="0 0 44 44" fill="none" xmlns="http://www.w3.org/2000/svg">
<g clip-path="url(#clip0_3527_128)">
<path fill-rule="evenodd" clip-rule="evenodd" d="M22 44C9.85167 44 0 34.1483 0 22C0 9.85167 9.85167 0 22 0C34.1483 0 44 9.85167 44 22C44 34.1483 34.1483 44 22 44ZM22 7.6903C28.0183 7.6903 32.8969 12.5689 32.8969 18.5872C32.8969 24.6054 22 36.3095 22 36.3095C22 36.3095 11.1031 24.6054 11.1031 18.5872C11.1031 12.5689 15.9817 7.6903 22 7.6903ZM22 14.2577C24.2818 14.2577 26.1322 16.1082 26.1322 18.3901C26.1322 20.6719 24.2818 22.5223 22 22.5223C19.7182 22.5223 17.8678 20.6719 17.8678 18.3901C17.8678 16.1082 19.7182 14.2577 22 14.2577Z" fill="black"/>
</g>
<defs>
<clipPath id="clip0_3527_128">
<rect width="44" height="44" fill="white"/>
</clipPath>
</defs>
</svg>
