<svg width="52" height="52" viewBox="0 0 52 52" fill="none" xmlns="http://www.w3.org/2000/svg">
<g clip-path="url(#clip0_3527_67)">
<path fill-rule="evenodd" clip-rule="evenodd" d="M7.92766 33.1501C8.57765 33.8001 9.74765 33.8001 10.5277 33.1501L13.2577 30.4201L24.5677 41.7301C28.8577 46.0201 35.7477 46.4101 40.5577 42.9001L49.0076 51.3501C49.6576 52.0001 50.8276 52.0001 51.6076 51.3501C52.2576 50.7001 52.2576 49.5301 51.6076 48.7501L43.1576 40.3001C46.6676 35.4901 46.2776 28.7301 41.9877 24.3101L30.6777 13.0001L33.4076 10.2701C34.0577 9.62008 34.0577 8.45008 33.4076 7.67008C32.7577 7.02008 31.5877 7.02008 30.8077 7.67008L24.4377 14.0401L16.6377 6.24008L20.1477 2.73008C20.7977 2.08008 20.7977 0.910078 20.1477 0.130078C19.4977 -0.519922 18.3277 -0.519922 17.5477 0.130078L0.647656 17.0301C-0.00234373 17.6801 -0.00234373 18.8501 0.647656 19.6301C1.29766 20.2801 2.46766 20.2801 3.24766 19.6301L6.75766 16.1201L14.5577 23.9201L8.18766 30.2901C7.53766 30.9401 7.53766 32.1101 8.18766 32.8901L7.92766 33.1501ZM21.7077 16.7701L16.8977 21.5801L9.09766 13.7801L13.9077 8.97008L21.7077 16.7701ZM15.7277 27.8201L27.9477 15.6001L39.2576 26.9101C42.6376 30.2901 42.6376 35.7501 39.2576 39.1301C35.8777 42.5101 30.4177 42.5101 27.0377 39.1301L15.7277 27.6901V27.8201Z" fill="white"/>
</g>
<defs>
<clipPath id="clip0_3527_67">
<rect width="52" height="52" fill="white"/>
</clipPath>
</defs>
</svg>
