<svg width="32" height="32" viewBox="0 0 32 32" fill="none" xmlns="http://www.w3.org/2000/svg">
<path d="M29.986 8.36612C29.973 7.76552 29.9248 7.1662 29.8418 6.57123C29.7414 6.04209 29.5705 5.52882 29.3336 5.04515C28.8156 4.02195 27.9848 3.19062 26.962 2.67203C26.4814 2.43643 25.9715 2.26599 25.4458 2.16521C24.8463 2.08069 24.2423 2.0316 23.637 2.0182C23.3808 2.0084 23.049 2.0042 22.895 2.0042L9.1078 2C8.9538 2 8.622 2.0042 8.3658 2.014C7.76523 2.02702 7.16594 2.07517 6.571 2.15821C6.04189 2.25859 5.52865 2.42953 5.045 2.66643C4.02185 3.18442 3.19057 4.01525 2.672 5.03815C2.43641 5.5188 2.26598 6.02872 2.1652 6.55443C2.08022 7.15395 2.03067 7.75796 2.0168 8.36332C2.0084 8.61953 2.0028 8.95135 2.0028 9.10535L2 22.8932C2 23.0473 2.0042 23.3791 2.014 23.6353C2.02702 24.2359 2.07517 24.8352 2.1582 25.4302C2.25858 25.9593 2.42951 26.4726 2.6664 26.9562C3.18436 27.9795 4.01515 28.8108 5.038 29.3294C5.51862 29.565 6.02852 29.7354 6.5542 29.8362C7.15372 29.9207 7.7577 29.9698 8.363 29.9832C8.6192 29.993 8.951 29.9972 9.105 29.9972L22.8922 30C23.0462 30 23.378 29.9958 23.6342 29.986C24.2348 29.973 24.8341 29.9248 25.429 29.8418C25.9581 29.7414 26.4714 29.5705 26.955 29.3336C27.9787 28.8158 28.8105 27.985 29.3294 26.9618C29.565 26.4812 29.7354 25.9713 29.8362 25.4456C29.9212 24.8461 29.9707 24.242 29.9846 23.6367C29.993 23.3805 29.9986 23.0487 29.9986 22.8946L30 9.10816C30 8.95415 29.9958 8.62233 29.986 8.36612ZM16.3038 25.741H16.2996C14.6329 25.7422 12.9927 25.3243 11.5298 24.5257L6.2378 25.9132L7.6546 20.7427C6.55763 18.8391 6.11932 16.6267 6.40762 14.4486C6.69592 12.2704 7.69472 10.2483 9.24916 8.6956C10.8036 7.14292 12.8269 6.14648 15.0052 5.86076C17.1836 5.57504 19.3953 6.016 21.2976 7.11529C23.1998 8.21457 24.6863 9.91076 25.5265 11.9409C26.3667 13.971 26.5137 16.2216 25.9447 18.3437C25.3758 20.4659 24.1226 22.3411 22.3795 23.6785C20.6364 25.0159 18.5008 25.7409 16.3038 25.741Z" fill="white"/>
<path d="M16.2529 7.50139C14.7789 7.50096 13.3317 7.89545 12.0617 8.64383C10.7918 9.39221 9.74556 10.4672 9.03179 11.7569C8.31802 13.0466 7.96281 14.504 8.00308 15.9775C8.04336 17.451 8.47765 18.8869 9.2608 20.1357L9.45708 20.4475L8.62326 23.4905L11.7456 22.672L12.0462 22.8502C13.3168 23.6041 14.7672 24.0013 16.2446 24H16.2488C18.4368 24.0004 20.5353 23.1315 22.0827 21.5846C23.6301 20.0377 24.4996 17.9394 24.5 15.7514C24.5004 13.5634 23.6315 11.4648 22.0847 9.91735C20.5378 8.36992 18.4395 7.50037 16.2516 7.5L16.2529 7.50139ZM21.1028 19.2921C20.9206 19.5936 20.6778 19.8541 20.3898 20.0571C20.1018 20.26 19.7748 20.401 19.4295 20.4711C18.9084 20.5607 18.3736 20.5273 17.8677 20.3737C17.3876 20.2249 16.916 20.0501 16.4548 19.8503C14.7422 18.9908 13.2825 17.7009 12.2189 16.1071C11.6384 15.3694 11.2862 14.4781 11.2055 13.5429C11.199 13.1569 11.2729 12.7739 11.4225 12.418C11.572 12.0621 11.7939 11.7412 12.0741 11.4757C12.1572 11.3815 12.2588 11.3053 12.3725 11.2519C12.4862 11.1986 12.6097 11.1691 12.7353 11.1653C12.8996 11.1653 13.0652 11.1653 13.21 11.1736C13.3631 11.1806 13.5663 11.1152 13.7668 11.5996C13.9756 12.0952 14.4712 13.316 14.5324 13.4399C14.5715 13.5049 14.5938 13.5786 14.5975 13.6544C14.6011 13.7302 14.5859 13.8057 14.5533 13.8742C14.4911 14.0233 14.4076 14.1625 14.3055 14.2876C14.1802 14.4324 14.0452 14.6106 13.9338 14.722C13.8085 14.8459 13.6805 14.9795 13.8239 15.2273C14.1968 15.8645 14.6617 16.4433 15.2034 16.9451C15.7923 17.4673 16.4672 17.8836 17.1981 18.1756C17.4459 18.3009 17.5907 18.2787 17.7355 18.113C17.8802 17.9474 18.3549 17.3891 18.5206 17.1414C18.6862 16.8936 18.8505 16.9353 19.0774 17.0175C19.3043 17.0996 20.5251 17.6996 20.7729 17.8249C21.0206 17.9501 21.1863 18.01 21.2475 18.113C21.3144 18.5118 21.2642 18.9214 21.1028 19.2921Z" fill="white"/>
</svg>
