<svg width="36" height="36" viewBox="0 0 36 36" fill="none" xmlns="http://www.w3.org/2000/svg">
<rect width="36" height="36" rx="6.42857" fill="#099A4E"/>
<path d="M18 36C8.0604 36 0 27.9396 0 18C0 8.0604 8.0604 0 18 0C27.9396 0 36 8.0604 36 18C36 27.9396 27.9396 36 18 36Z" fill="#42A9FE"/>
<path d="M18 36C8.0604 36 0 27.9396 0 18C0 8.0604 8.0604 0 18 0C27.9396 0 36 8.0604 36 18C36 27.9396 27.9396 36 18 36Z" fill="#099A4E"/>
<path fill-rule="evenodd" clip-rule="evenodd" d="M26.4218 9.61884C24.1898 7.38324 21.2162 6.15204 18.0518 6.14844C11.5322 6.14844 6.2222 11.4548 6.2222 17.978C6.2222 20.0624 6.7658 22.1 7.8026 23.8928L6.125 30.0236L12.3962 28.3784C14.1242 29.3216 16.0682 29.8184 18.0482 29.8184H18.0518C24.5714 29.8184 29.8778 24.512 29.8814 17.9888C29.885 14.828 28.6574 11.8544 26.4218 9.61884ZM18.0554 27.8204H18.0518C16.2878 27.8204 14.5562 27.3452 13.0478 26.4488L12.6878 26.2364L8.9654 27.212L9.959 23.5832L9.725 23.2124C8.7422 21.6464 8.2202 19.8392 8.2202 17.978C8.2238 12.5564 12.6338 8.14644 18.059 8.14644C20.687 8.14644 23.153 9.17244 25.0106 11.03C26.8682 12.8876 27.8906 15.3608 27.887 17.9852C27.887 23.4104 23.4734 27.8204 18.0554 27.8204ZM23.4482 20.4548C23.153 20.3072 21.6986 19.5908 21.4286 19.4936C21.1586 19.3964 20.9606 19.346 20.7626 19.6412C20.5646 19.9364 19.9994 20.6024 19.8266 20.8004C19.6538 20.9984 19.481 21.0236 19.1858 20.876C18.8906 20.7284 17.9366 20.4152 16.8098 19.4072C15.9314 18.6224 15.3374 17.654 15.1646 17.3588C14.9918 17.0636 15.1466 16.9016 15.2942 16.754C15.4274 16.6208 15.5894 16.4084 15.737 16.2356C15.8846 16.0628 15.935 15.9404 16.0322 15.7424C16.1294 15.5444 16.0826 15.3716 16.007 15.224C15.9314 15.0764 15.341 13.622 15.0962 13.028C14.855 12.452 14.6138 12.5312 14.4302 12.5204C14.2574 12.5132 14.0594 12.5096 13.865 12.5096C13.667 12.5096 13.3466 12.5852 13.0766 12.8804C12.8066 13.1756 12.0434 13.892 12.0434 15.3464C12.0434 16.8008 13.1018 18.2084 13.2494 18.4028C13.397 18.6008 15.3338 21.5852 18.3002 22.8668C19.0058 23.1728 19.5566 23.3528 19.985 23.4896C20.6942 23.7164 21.3386 23.684 21.8462 23.6084C22.415 23.522 23.5958 22.892 23.8406 22.2044C24.0854 21.5132 24.0854 20.9228 24.0134 20.8004C23.9414 20.678 23.7434 20.606 23.4482 20.4548Z" fill="white"/>
</svg>
